<svg xmlns="http://www.w3.org/2000/svg" viewBox="253.5 73.9 109.3 160.3"><g transform="scale(0.2500) translate(0.000000,2840.000000) scale(0.100000,-0.100000)"><path fill="#fff" d="M11638 23198 c3 -22 -11 -38 -80 -96 -144 -121 -311 -312 -361 -412 -7 -14 -24 -43 -38 -65 -88 -136 -174 -370 -220 -595 l-24 -115 1 -235 1 -235 26 -125 c15 -69 33 -143 41 -165 8 -22 15 -51 16 -63 0 -13 6 -36 14 -50 8 -15 24 -49 36 -77 34 -80 113 -237 138 -275 35 -55 41 -63 65 -96 50 -71 106 -140 126 -158 39 -35 40 -32 -194 -342 -27 -36 -57 -76 -65 -88 -48 -70 -67 -88 -89 -81 -19 6 -139 135 -198 213 -62 82 -143 225 -201 352 -136 302 -169 720 -86 1085 87 382 299 812 566 1146 178 222 477 518 512 506 6 -2 12 -15 14 -29zM11737 20133 c43 -28 89 -60 103 -71 14 -11 53 -33 86 -50 34 -17 64 -39 68 -48 8 -21 5 -26 -152 -224 -194 -244 -234 -290 -253 -290 -36 0 -221 136 -341 249 -111 106 -145 153 -131 184 9 18 297 411 333 455 9 9 34 -6 110 -70 55 -46 135 -106 177 -135z"/><path fill="#049DC4" d="M12304 25325 c-7 -19 -14 -42 -14 -52 0 -46 -69 -302 -123 -458 -23 -65 -60 -162 -109 -280 -65 -158 -275 -551 -339 -636 -14 -19 -56 -79 -94 -134 -59 -88 -106 -149 -167 -220 -9 -11 -36 -45 -60 -75 -24 -30 -73 -90 -108 -133 -36 -43 -72 -90 -81 -103 -9 -14 -23 -30 -31 -37 -15 -11 -192 -223 -233 -278 -11 -15 -45 -57 -76 -95 -31 -38 -75 -96 -98 -129 -23 -33 -64 -91 -92 -130 -68 -95 -96 -137 -145 -221 -60 -105 -170 -334 -179 -373 -4 -18 -13 -44 -21 -59 -8 -15 -14 -36 -14 -47 -1 -11 -8 -38 -16 -60 -123 -330 -106 -910 37 -1289 11 -27 19 -53 19 -59 0 -26 163 -348 205 -407 165 -225 284 -352 450 -480 221 -170 346 -239 635 -348 74 -27 146 -47 287 -78 209 -46 591 -45 798 2 343 78 572 181 876 393 135 94 361 335 476 506 64 94 181 318 208 395 73 213 69 197 113 415 l26 130 0 240 1 240 -23 115 c-33 176 -105 411 -151 497 -5 10 -33 65 -61 123 -28 58 -65 125 -80 150 -16 25 -37 58 -46 74 -38 68 -149 228 -219 316 -41 52 -83 106 -93 120 -9 14 -73 92 -142 174 -162 192 -275 330 -440 535 -124 155 -293 406 -387 576 -15 28 -33 59 -40 70 -16 26 -25 45 -96 195 -83 178 -80 171 -129 310 -10 30 -23 64 -28 75 -30 69 -120 394 -135 490 -14 87 -35 101 -61 40z m-666 -2127 c3 -22 -11 -38 -80 -96 -144 -121 -311 -312 -361 -412 -7 -14 -24 -43 -38 -65 -88 -136 -174 -370 -220 -595 l-24 -115 1 -235 1 -235 26 -125 c15 -69 33 -143 41 -165 8 -22 15 -51 16 -63 0 -13 6 -36 14 -50 8 -15 24 -49 36 -77 34 -80 113 -237 138 -275 35 -55 41 -63 65 -96 50 -71 106 -140 126 -158 39 -35 40 -32 -194 -342 -27 -36 -57 -76 -65 -88 -48 -70 -67 -88 -89 -81 -19 6 -139 135 -198 213 -62 82 -143 225 -201 352 -136 302 -169 720 -86 1085 87 382 299 812 566 1146 178 222 477 518 512 506 6 -2 12 -15 14 -29z m99 -3065 c43 -28 89 -60 103 -71 14 -11 53 -33 86 -50 34 -17 64 -39 68 -48 8 -21 5 -26 -152 -224 -194 -244 -234 -290 -253 -290 -36 0 -221 136 -341 249 -111 106 -145 153 -131 184 9 18 297 411 333 455 9 9 34 -6 110 -70 55 -46 135 -106 177 -135z"/></g></svg>